<?xml version="1.0" encoding="UTF-8"?>
<svg id="Layer_2" data-name="Layer 2" xmlns="http://www.w3.org/2000/svg" viewBox="0 0 357.44 91.46">
  <defs>
    <style>
      .cls-1 {
        fill: #c19a6a;
      }

      .cls-2 {
        fill: #fffffe;
      }
    </style>
  </defs>
  <g id="Layer_1-2" data-name="Layer 1">
    <g>
      <path class="cls-1" d="M172.66,30.49c4.64-.45,8.98.53,12.7,3.32.48.36,2.2,2.14,2.59,2.14,3.22-2.76,6.82-5.2,11.21-5.53,10.74-.79,19.02,6.5,19.19,17.22.21,13.04.02,26.13,0,39.18,0,1.03.55,1.39-.48,2.26-.29.25-.81.52-1.2.58-1.1.17-5.39.16-6.19-.48-.26-.21-.37-.41-.46-.72-.31-13.89-.02-27.85-.15-41.76-1.87-9.88-15.3-10.21-17.45-.36l-.04,41.2c-.04,1.21-.65,2.29-1.93,2.49-.94.14-4.26.14-5.2,0-.87-.13-1.55-.77-1.83-1.59l-.12-42.38c-2.34-9.86-16.06-9.51-17.88.44v41.25s-.16,2.13-1.48,2.28c-1.04.12-3.97.14-4.97-.01-.86-.13-1.55-1.57-1.55-1.57l-.05-53.33c.58-2.84,5.46-1.34,7.53-1.73.49-.09,2.38-1.38,3.21-1.72,1.33-.53,3.13-1.03,4.54-1.17Z"/>
      <path class="cls-1" d="M267.64,40.01c-2.76,1.87-4.57,2.89-5.2,6.63l-.11,41.86c-.22.48-.47.99-.96,1.23-.67.33-4.38.34-5.28.23-.61-.07-1.46-.47-1.65-1.09l-.15-42.22c-1.83-9.78-14.45-10.51-17.85-1.34l-.21,43.32c-.19.63-1.17,1.26-1.8,1.36-1.12.17-5.33.14-6.19-.48-.54-.39-.76-1.32-.8-1.96v-51.61c-.11-4.48,5-2.27,7.71-2.88.56-.12,2.21-1.34,3.03-1.68,6.83-2.8,14.83-.95,19.79,4.45,1.15-.88,2.09-1.92,3.3-2.74,11.13-7.5,25.87-.31,27.17,12.85v40.57c-.15,1.06-.15,2.41-1.48,2.62-.95.15-6,.21-6.31-.71-.11-.32-.21-1.66-.24-2.11-.07-1.18-.01-2.54,0-3.73.15-10.99.94-23.55.21-34.42-.13-1.96-1.7-5.64-3.14-7.03-2.08-2-6.29-2.81-9.01-1.97-.58.18-.62.68-.83.83Z"/>
      <path class="cls-1" d="M348.68,37.05c-.03-.93.13-3.01.89-3.59s5.09-.52,6.13-.35c.85.14,1.49.6,1.73,1.46l-.1,54.25c-.59,1.82-7.15,1.41-7.97.62-.53-.52-.23-2.76-.31-3.67-.07-.76-.29-1.57-.38-2.41-.03-.29.17-.58-.29-.5-4.24,4.05-9.58,7.03-15.4,8.1-4.57.84-13.24.8-17.42-1.35-1.31-.67-3.22-2.04-4.55-2.86-3.33-2.04-6.79-5.18-9.43-8.1-1.04-1.15-4.12-7.37-4.57-8.97-.27-.96-.94-3.25-1.08-4.1-.28-1.65-.3-9.44-.04-11.09.1-.59.55-.85.69-1.3,2.45-7.96,4.59-12.09,11.05-17.63,9.49-8.14,24.99-9.61,35.65-2.57l5.39,4.06ZM325.38,37.51c-19.73,1.37-28.04,26.25-13.01,39.37,5.56,4.86,11.68,5.89,18.94,5.38,2.16-.15,6.94-2.02,8.76-3.19,1.23-.79,7.1-7.08,7.75-8.38.89-1.79,2.18-6.06,2.32-8.04.31-4.36-.09-8.23-1.84-12.11-1.35-3-1.93-3.78-4.24-6.11-5.7-5.78-10.42-7.49-18.67-6.91Z"/>
      <g>
        <path class="cls-1" d="M99.41,58.96c-.44.13-.32,1.64-.31,2.1.64,18.2,22.92,27.61,36.87,15.92,1.32-1.1,2.49-2.85,3.68-3.89.73-.64,1.59-.7,2.51-.51s4.11,1.37,4.97,1.8c2.63,1.34.34,3.86-.9,5.28-11.48,13.23-30.79,15.95-44.62,4.57-2.45-2.02-3.9-4.42-5.85-6.89-1.37-1.74-4.55-8.96-4.79-11.15-.11-1.04.06-2.1-.05-3.14-.12-1.13-.79-2.3-.79-3.41,0-1.02.64-2.17.79-3.21.53-3.64.44-5.56,2.06-9.09,6.79-14.76,21.14-22.39,37.45-18.01,8.88,2.38,17.59,10.26,20.37,19.07.74,2.33,1.66,6.67,1.29,9.04-.08.49-.86,1.5-1.28,1.5h-51.4ZM141.54,49.96c-1.22-4-4.7-7.44-8.18-9.64-8.04-5.07-19.1-4.25-26.28,1.97-2.28,1.98-4.85,4.8-5.77,7.67h40.24Z"/>
        <path class="cls-1" d="M80.53,62.38c3.2-.65,4.76,3.62,1.99,4.97-3.8,1.85-5.37-4.29-1.99-4.97Z"/>
        <g>
          <path class="cls-1" d="M43.69.07c11.7-.67,24.33,3.43,33.11,11.19.93.82,3.34,3.07,3.98,3.99.97,1.38-.03,2.06-.99,2.99-1.25,1.21-2.88,2.38-4.19,3.58-1.13,1.03-4.99,5.28-6.28,5.26-1.12-.02-3.76-3.3-4.78-4.16-11.06-9.26-26.57-8.91-37.15.89-14.9,13.8-10.98,40.11,7.78,48.38,10.1,4.45,21.5,2.5,29.68-4.77,1.1-.98,3.39-4.1,4.68-4.1.83,0,2.04,1.15,2.69,1.7,2.05,1.71,4.4,3.94,6.37,5.77,1.39,1.29,3.37,2.55,2.08,4.47-1.39,2.07-6.23,6.06-8.39,7.54-19.78,13.57-46.62,9.49-61.81-8.83C-13.71,44.83,6.77,2.2,43.69.07Z"/>
          <path class="cls-1" d="M42.43,60.15c6.16-.65,11.8-9.08,16.65-12.63,5.54-4.04,13.29-5.34,18.81-.52,3.59,3.14,4.82,9.31.23,12.19s-8.5-1.53-12.81-2.21c-6.1-.96-7.55,1.7-12.17,4.32-4.02,2.28-8.14,2.71-12.52,1.04-.52-.2-3.01-1.42-3.28-1.7-.97-1.04.21-.5.3-.5,1.48,0,3.36.15,4.78,0ZM65.54,48.4c.5.14,2.29,0,2.99,0,.93,0,2.81,1.02,3.58,1.6.6.45,1.02,1.36,1.8,1.41.96.06,1.4-.38,1.31-1.32-.19-1.92-4.36-3.74-6.08-3.89-.72-.06-2.68-.09-3.3.1-1.07.33-1,1.9-.29,2.1Z"/>
          <path class="cls-1" d="M44.09,21.78c6.45-.63,13.05,1.55,17.68,6.11.87.86,2.07,2.95.17,3.18-1.44.18-2.45-1.64-3.46-2.49-10.46-8.81-25.88-3.36-30.58,8.87-7.99,20.78,16.64,38.99,32.82,22.65,1.29-.63,2.75.38,1.95,1.75-.41.7-3.33,3.11-4.13,3.64-13.06,8.63-30.02.87-34.04-13.7-3.67-13.31,5.47-28.63,19.59-30.01Z"/>
          <path class="cls-2" d="M65.54,48.4c-.71-.2-.78-1.77.29-2.1.63-.19,2.58-.16,3.3-.1,1.72.15,5.89,1.96,6.08,3.89.09.94-.35,1.38-1.31,1.32-.77-.05-1.2-.96-1.8-1.41-.77-.58-2.65-1.6-3.58-1.6-.69,0-2.49.14-2.99,0Z"/>
        </g>
      </g>
    </g>
  </g>
</svg>